{
    "asset" : {
        "generator" : "Khronos glTF Blender I/O v1.7.33",
        "version" : "2.0"
    },
    "scene" : 0,
    "scenes" : [
        {
            "name" : "Cycles",
            "nodes" : [
                0
            ]
        }
    ],
    "nodes" : [
        {
            "mesh" : 0,
            "name" : "Gun.001",
            "translation" : [
                -0.5381119847297668,
                0,
                0
            ]
        }
    ],
    "materials" : [
        {
            "doubleSided" : true,
            "name" : "handgun_cycles",
            "pbrMetallicRoughness" : {}
        },
        {
            "doubleSided" : true,
            "name" : "Material.002",
            "pbrMetallicRoughness" : {}
        }
    ],
    "meshes" : [
        {
            "name" : "Cube.012",
            "primitives" : [
                {
                    "attributes" : {
                        "POSITION" : 0,
                        "NORMAL" : 1,
                        "TEXCOORD_0" : 2
                    },
                    "indices" : 3,
                    "material" : 0
                },
                {
                    "attributes" : {
                        "POSITION" : 4,
                        "NORMAL" : 5,
                        "TEXCOORD_0" : 6
                    },
                    "indices" : 7,
                    "material" : 1
                }
            ]
        }
    ],
    "accessors" : [
        {
            "bufferView" : 0,
            "componentType" : 5126,
            "count" : 806,
            "max" : [
                1.412860631942749,
                1.1513350009918213,
                0.12390203028917313
            ],
            "min" : [
                -0.4425699710845947,
                0.06069910526275635,
                -0.12754587829113007
            ],
            "type" : "VEC3"
        },
        {
            "bufferView" : 1,
            "componentType" : 5126,
            "count" : 806,
            "type" : "VEC3"
        },
        {
            "bufferView" : 2,
            "componentType" : 5126,
            "count" : 806,
            "type" : "VEC2"
        },
        {
            "bufferView" : 3,
            "componentType" : 5123,
            "count" : 3207,
            "type" : "SCALAR"
        },
        {
            "bufferView" : 4,
            "componentType" : 5126,
            "count" : 55,
            "max" : [
                1.3948147296905518,
                1.1382472515106201,
                0.05740214139223099
            ],
            "min" : [
                0.9113276600837708,
                1.0277132987976074,
                -0.05740214139223099
            ],
            "type" : "VEC3"
        },
        {
            "bufferView" : 5,
            "componentType" : 5126,
            "count" : 55,
            "type" : "VEC3"
        },
        {
            "bufferView" : 6,
            "componentType" : 5126,
            "count" : 55,
            "type" : "VEC2"
        },
        {
            "bufferView" : 7,
            "componentType" : 5123,
            "count" : 240,
            "type" : "SCALAR"
        }
    ],
    "bufferViews" : [
        {
            "buffer" : 0,
            "byteLength" : 9672,
            "byteOffset" : 0
        },
        {
            "buffer" : 0,
            "byteLength" : 9672,
            "byteOffset" : 9672
        },
        {
            "buffer" : 0,
            "byteLength" : 6448,
            "byteOffset" : 19344
        },
        {
            "buffer" : 0,
            "byteLength" : 6414,
            "byteOffset" : 25792
        },
        {
            "buffer" : 0,
            "byteLength" : 660,
            "byteOffset" : 32208
        },
        {
            "buffer" : 0,
            "byteLength" : 660,
            "byteOffset" : 32868
        },
        {
            "buffer" : 0,
            "byteLength" : 440,
            "byteOffset" : 33528
        },
        {
            "buffer" : 0,
            "byteLength" : 480,
            "byteOffset" : 33968
        }
    ],
    "buffers" : [
        {
            "byteLength" : 34448,
            "uri" : "data:application/octet-stream;base64,"
        }
    ]
}
